,
.   http://www.scenetime.com/signup.php  ---&gt;  Hottest scene tracker on the net !!!  

    Join Now   http://www.scenetime.com/signup.php

    seed back for speed


 



...................................NFO:.................................................[img]http://www.hotimg.com/direct/yvebYnj.jpg[/img]
[code]

A Very Harold & Kumar 3D Christmas 2011 TS XviD-26K

IMDb: http://www.imdb.com/title/tt1268799/

Plot:
Six years after their Guantanamo Bay adventure, stoner buds Harold Lee and Kumar Patel cause a holiday fracas by inadvertently burning down Harold's father-in-law's prize Christmas tree.

Source:
MiSTERE THNXS

Notes:
video is 3d i just added few brightness and sharpness filters :) so enjoy and it is in sync!"


Video
ID                                       : 0
Format                                   : MPEG-4 Visual
Format profile                           : Advanced Simple@L5
Format settings, BVOP                    : 2
Format settings, QPel                    : No
Format settings, GMC                     : No warppoints
Format settings, Matrix                  : Default (H.263)
Codec ID                                 : XVID
Codec ID/Hint                            : XviD
Duration                                 : 1h 20mn
Bit rate                                 : 1 900 Kbps
Width                                    : 720 pixels
Height                                   : 304 pixels
Display aspect ratio                     : 2.35:1
Frame rate                               : 24.000 fps
Color space                              : YUV
Chroma subsampling                       : 4:2:0
Bit depth                                : 8 bits
Scan type                                : Progressive
Compression mode                         : Lossy
Bits/(Pixel*Frame)                       : 0.362
Stream size                              : 1.07 GiB (88%)
Writing library                          : XviD 63

Audio
ID                                       : 1
Format                                   : MPEG Audio
Format version                           : Version 1
Format profile                           : Layer 3
Mode                                     : Joint stereo
Mode extension                           : MS Stereo
Codec ID                                 : 55
Codec ID/Hint                            : MP3
Duration                                 : 1h 20mn
Bit rate mode                            : Constant
Bit rate                                 : 256 Kbps
Channel(s)                               : 2 channels
Sampling rate                            : 44.1 KHz
Compression mode                         : Lossy
Stream size                              : 148 MiB (12%)
Alignment                                : Split accross interleaves
Interleave, duration                     : 26 ms (0.63 video frame)

[/code]
Screens:
[img]http://www.hotimg.com/direct/VrX6sVa.png[/img]
[img]http://www.hotimg.com/direct/FcC9KjR.png[/img]
[img]http://www.hotimg.com/direct/Pk4aTP4.png[/img]
[img]http://www.hotimg.com/direct/ABuHfBr.png[/img]
[img]http://www.hotimg.com/direct/dEPga3h.png[/img]